#N canvas 178 102 790 501 10;
#X obj 66 56 hsl 128 15 0 300 0 0 empty empty empty -2 -8 0 10 -262144
-1 -1 4000 1;
#X obj 36 126 metro;
#X obj 36 18 tgl 20 0 empty empty empty 17 7 0 10 -262144 -1 -1 0 1
;
#X obj 36 211 mod 16;
#X floatatom 69 188 5 0 0 0 - - -;
#X obj 36 234 hradio 15 1 0 16 empty empty empty 0 -8 0 10 -262144
-1 -1 3;
#X obj 36 155 float;
#X obj 80 155 + 1;
#X obj 346 238 mod 16;
#X floatatom 379 215 5 0 0 0 - - -;
#X obj 346 261 hradio 15 1 0 16 empty empty empty 0 -8 0 10 -262144
-1 -1 7;
#X obj 354 99 hsl 128 15 0 10 0 0 empty empty empty -2 -8 0 10 -262144
-1 -1 5400 1;
#X obj 346 128 i;
#X floatatom 346 149 5 0 0 0 - - -;
#X obj 331 178 +;
#X msg 536 169 64 66 71 73 74 66 64 73 71 66 74 73;
#X obj 37 376 noteout 3;
#X text 199 58 BPM;
#X text 482 100 Phase;
#X obj 349 368 noteout 4;
#X obj 37 349 makenote 80 100 100;
#X obj 349 342 makenote 80 100 100;
#N canvas 0 23 560 303 sequence 0;
#X obj 11 9 inlet;
#X obj 162 279 outlet;
#X obj 77 149 f;
#X obj 103 149 f;
#X obj 129 149 f;
#X obj 154 149 f;
#X obj 180 149 f;
#X obj 206 149 f;
#X obj 232 149 f;
#X obj 257 149 f;
#X obj 281 149 f;
#X obj 307 149 f;
#X obj 333 149 f;
#X obj 358 149 f;
#X obj 384 149 f;
#X obj 410 148 f;
#X obj 436 149 f;
#X obj 461 149 f;
#X obj 11 43 select 0 1 2 3 4 5 6 7 8 9 10 11 12 13 14 15;
#X obj 297 43 unpack f f f f f f f f f f f f f f f f;
#X obj 297 10 inlet;
#X connect 0 0 18 0;
#X connect 2 0 1 0;
#X connect 3 0 1 0;
#X connect 4 0 1 0;
#X connect 5 0 1 0;
#X connect 6 0 1 0;
#X connect 7 0 1 0;
#X connect 8 0 1 0;
#X connect 9 0 1 0;
#X connect 10 0 1 0;
#X connect 11 0 1 0;
#X connect 12 0 1 0;
#X connect 13 0 1 0;
#X connect 14 0 1 0;
#X connect 15 0 1 0;
#X connect 16 0 1 0;
#X connect 17 0 1 0;
#X connect 18 0 2 0;
#X connect 18 1 3 0;
#X connect 18 2 4 0;
#X connect 18 3 5 0;
#X connect 18 4 6 0;
#X connect 18 5 7 0;
#X connect 18 6 8 0;
#X connect 18 7 9 0;
#X connect 18 8 10 0;
#X connect 18 9 11 0;
#X connect 18 10 12 0;
#X connect 18 11 13 0;
#X connect 18 12 14 0;
#X connect 18 13 15 0;
#X connect 18 14 16 0;
#X connect 18 15 17 0;
#X connect 19 0 2 1;
#X connect 19 1 3 1;
#X connect 19 2 4 1;
#X connect 19 3 5 1;
#X connect 19 4 6 1;
#X connect 19 5 7 1;
#X connect 19 6 8 1;
#X connect 19 7 9 1;
#X connect 19 8 10 1;
#X connect 19 9 11 1;
#X connect 19 10 12 1;
#X connect 19 11 13 1;
#X connect 19 12 14 1;
#X connect 19 13 15 1;
#X connect 19 14 16 1;
#X connect 19 15 17 1;
#X connect 20 0 19 0;
#X restore 346 289 pd sequence;
#N canvas 376 360 187 223 BPM_Conversion 0;
#X obj 28 16 inlet;
#X obj 28 109 outlet;
#X floatatom 28 63 5 0 0 0 - - -;
#X obj 28 84 expr (60/$f1)*1000;
#X obj 28 39 int;
#X obj 100 41 outlet;
#X connect 0 0 4 0;
#X connect 2 0 3 0;
#X connect 2 0 5 0;
#X connect 3 0 1 0;
#X connect 4 0 2 0;
#X restore 63 82 pd BPM_Conversion;
#X floatatom 162 105 5 0 0 0 - - -;
#N canvas 0 23 560 303 sequence 0;
#X obj 11 9 inlet;
#X obj 162 279 outlet;
#X obj 77 149 f;
#X obj 103 149 f;
#X obj 129 149 f;
#X obj 154 149 f;
#X obj 180 149 f;
#X obj 206 149 f;
#X obj 232 149 f;
#X obj 257 149 f;
#X obj 281 149 f;
#X obj 307 149 f;
#X obj 333 149 f;
#X obj 358 149 f;
#X obj 384 149 f;
#X obj 410 148 f;
#X obj 436 149 f;
#X obj 461 149 f;
#X obj 11 43 select 0 1 2 3 4 5 6 7 8 9 10 11 12 13 14 15;
#X obj 297 43 unpack f f f f f f f f f f f f f f f f;
#X obj 297 10 inlet;
#X connect 0 0 18 0;
#X connect 2 0 1 0;
#X connect 3 0 1 0;
#X connect 4 0 1 0;
#X connect 5 0 1 0;
#X connect 6 0 1 0;
#X connect 7 0 1 0;
#X connect 8 0 1 0;
#X connect 9 0 1 0;
#X connect 10 0 1 0;
#X connect 11 0 1 0;
#X connect 12 0 1 0;
#X connect 13 0 1 0;
#X connect 14 0 1 0;
#X connect 15 0 1 0;
#X connect 16 0 1 0;
#X connect 17 0 1 0;
#X connect 18 0 2 0;
#X connect 18 1 3 0;
#X connect 18 2 4 0;
#X connect 18 3 5 0;
#X connect 18 4 6 0;
#X connect 18 5 7 0;
#X connect 18 6 8 0;
#X connect 18 7 9 0;
#X connect 18 8 10 0;
#X connect 18 9 11 0;
#X connect 18 10 12 0;
#X connect 18 11 13 0;
#X connect 18 12 14 0;
#X connect 18 13 15 0;
#X connect 18 14 16 0;
#X connect 18 15 17 0;
#X connect 19 0 2 1;
#X connect 19 1 3 1;
#X connect 19 2 4 1;
#X connect 19 3 5 1;
#X connect 19 4 6 1;
#X connect 19 5 7 1;
#X connect 19 6 8 1;
#X connect 19 7 9 1;
#X connect 19 8 10 1;
#X connect 19 9 11 1;
#X connect 19 10 12 1;
#X connect 19 11 13 1;
#X connect 19 12 14 1;
#X connect 19 13 15 1;
#X connect 19 14 16 1;
#X connect 19 15 17 1;
#X connect 20 0 19 0;
#X restore 38 267 pd sequence;
#X obj 278 46 hsl 128 15 0 16 0 0 empty empty empty -2 -8 0 10 -262144
-1 -1 9700 1;
#X obj 275 71 i;
#X text 415 45 Number of Steps;
#X msg 536 141 73 74 66 71 73 64 66 74 73 71 66 64;
#X connect 0 0 23 0;
#X connect 1 0 6 0;
#X connect 2 0 1 0;
#X connect 3 0 5 0;
#X connect 4 0 3 1;
#X connect 5 0 25 0;
#X connect 6 0 7 0;
#X connect 6 0 3 0;
#X connect 6 0 14 0;
#X connect 7 0 6 1;
#X connect 8 0 10 0;
#X connect 9 0 8 1;
#X connect 10 0 22 0;
#X connect 11 0 12 0;
#X connect 12 0 13 0;
#X connect 13 0 14 1;
#X connect 14 0 8 0;
#X connect 15 0 22 1;
#X connect 15 0 25 1;
#X connect 20 0 16 0;
#X connect 20 1 16 1;
#X connect 21 0 19 0;
#X connect 21 1 19 1;
#X connect 22 0 21 1;
#X connect 22 0 21 0;
#X connect 23 0 1 1;
#X connect 23 1 24 0;
#X connect 25 0 20 0;
#X connect 25 0 20 1;
#X connect 26 0 27 0;
#X connect 27 0 4 0;
#X connect 27 0 9 0;
#X connect 29 0 25 1;
#X connect 29 0 22 1;
