#N canvas 907 27 514 413 10;
#X obj 66 56 hsl 128 15 0 300 0 0 empty empty empty -2 -8 0 10 -262144
-1 -1 5700 1;
#X obj 36 212 metro;
#X obj 36 18 tgl 20 0 empty empty empty 17 7 0 10 -262144 -1 -1 0 1
;
#X obj 36 297 mod 16;
#X floatatom 69 274 5 0 0 0 - - -;
#X obj 36 365 hradio 15 1 0 16 empty empty empty 0 -8 0 10 -262144
-1 -1 4;
#X obj 36 241 float;
#X obj 36 462 noteout 3;
#X obj 36 426 makenote 80 100 100;
#N canvas 376 360 187 223 BPM_Conversion 0;
#X obj 28 16 inlet;
#X obj 28 109 outlet;
#X floatatom 28 63 5 0 0 0 - - -;
#X obj 28 84 expr (60/$f1)*1000;
#X obj 28 39 int;
#X obj 100 41 outlet;
#X connect 0 0 4 0;
#X connect 2 0 3 0;
#X connect 2 0 5 0;
#X connect 3 0 1 0;
#X connect 4 0 2 0;
#X restore 63 82 pd BPM_Conversion;
#X floatatom 162 105 5 0 0 0 - - -;
#N canvas 0 23 560 303 sequence 0;
#X obj 11 9 inlet;
#X obj 162 279 outlet;
#X obj 77 149 f;
#X obj 103 149 f;
#X obj 129 149 f;
#X obj 154 149 f;
#X obj 180 149 f;
#X obj 206 149 f;
#X obj 232 149 f;
#X obj 257 149 f;
#X obj 281 149 f;
#X obj 307 149 f;
#X obj 333 149 f;
#X obj 358 149 f;
#X obj 384 149 f;
#X obj 410 148 f;
#X obj 436 149 f;
#X obj 461 149 f;
#X obj 11 43 select 0 1 2 3 4 5 6 7 8 9 10 11 12 13 14 15;
#X obj 297 43 unpack f f f f f f f f f f f f f f f f;
#X obj 297 10 inlet;
#X connect 0 0 18 0;
#X connect 2 0 1 0;
#X connect 3 0 1 0;
#X connect 4 0 1 0;
#X connect 5 0 1 0;
#X connect 6 0 1 0;
#X connect 7 0 1 0;
#X connect 8 0 1 0;
#X connect 9 0 1 0;
#X connect 10 0 1 0;
#X connect 11 0 1 0;
#X connect 12 0 1 0;
#X connect 13 0 1 0;
#X connect 14 0 1 0;
#X connect 15 0 1 0;
#X connect 16 0 1 0;
#X connect 17 0 1 0;
#X connect 18 0 2 0;
#X connect 18 1 3 0;
#X connect 18 2 4 0;
#X connect 18 3 5 0;
#X connect 18 4 6 0;
#X connect 18 5 7 0;
#X connect 18 6 8 0;
#X connect 18 7 9 0;
#X connect 18 8 10 0;
#X connect 18 9 11 0;
#X connect 18 10 12 0;
#X connect 18 11 13 0;
#X connect 18 12 14 0;
#X connect 18 13 15 0;
#X connect 18 14 16 0;
#X connect 18 15 17 0;
#X connect 19 0 2 1;
#X connect 19 1 3 1;
#X connect 19 2 4 1;
#X connect 19 3 5 1;
#X connect 19 4 6 1;
#X connect 19 5 7 1;
#X connect 19 6 8 1;
#X connect 19 7 9 1;
#X connect 19 8 10 1;
#X connect 19 9 11 1;
#X connect 19 10 12 1;
#X connect 19 11 13 1;
#X connect 19 12 14 1;
#X connect 19 13 15 1;
#X connect 19 14 16 1;
#X connect 19 15 17 1;
#X connect 20 0 19 0;
#X restore 36 393 pd sequence;
#X obj 230 231 hsl 128 15 0 16 0 0 empty empty empty -2 -8 0 10 -262144
-1 -1 4100 1;
#X obj 227 260 i;
#X msg 213 406 73 74 66 71 73 64 66 74 73 71 66 64;
#N canvas 479 382 821 584 direction 1;
#X obj 229 523 outlet;
#X obj 21 86 inlet;
#X obj 21 108 f;
#X obj 162 17 inlet;
#X obj 162 76 == 0;
#X obj 162 101 tgl 15 0 empty empty empty 17 7 0 10 -262144 -1 -1 1
1;
#X obj 226 101 tgl 15 0 empty empty empty 17 7 0 10 -262144 -1 -1 0
1;
#X obj 296 103 tgl 15 0 empty empty empty 17 7 0 10 -262144 -1 -1 0
1;
#X obj 498 101 tgl 15 0 empty empty empty 17 7 0 10 -262144 -1 -1 0
1;
#X obj 226 76 == 1;
#X obj 296 78 == 2;
#X obj 498 76 == 3;
#X obj 129 319 spigot;
#X obj 129 342 + 1;
#X obj 193 320 spigot;
#X obj 193 343 - 1;
#X obj 218 414 + 1;
#X obj 218 389 spigot;
#X obj 276 376 tgl 15 0 empty empty empty 17 7 0 10 -262144 -1 -1 1
1;
#X obj 317 414 tgl 15 0 empty empty empty 17 7 0 10 -262144 -1 -1 0
1;
#X obj 276 400 != 1;
#X obj 263 427 spigot;
#X obj 263 451 - 1;
#X obj 263 320 spigot;
#X obj 395 407 spigot;
#X obj 428 380 tgl 15 0 empty empty empty 17 7 0 10 -262144 -1 -1 1
1;
#X obj 520 432 tgl 15 0 empty empty empty 17 7 0 10 -262144 -1 -1 0
1;
#X obj 483 409 != 1;
#X obj 466 445 spigot;
#X obj 465 329 spigot;
#X obj 730 75 inlet;
#X floatatom 730 100 5 0 0 0 - - -;
#X obj 730 125 f;
#X floatatom 648 175 5 0 0 0 - - -;
#X obj 715 153 ==;
#X obj 395 432 - 1;
#X obj 466 469 + 1;
#X obj 639 208 == 0;
#X obj 637 367 tgl 15 0 empty empty empty 17 7 0 10 -262144 -1 -1 0
1;
#X obj 664 367 tgl 15 0 empty empty empty 17 7 0 10 -262144 -1 -1 0
1;
#X obj 655 443 hradio 15 1 0 2 empty empty empty 0 -8 0 10 -262144
-1 -1 0;
#X obj 619 246 tgl 15 0 empty empty empty 17 7 0 10 -262144 -1 -1 0
1;
#X obj 734 196 tgl 15 0 empty empty empty 17 7 0 10 -262144 -1 -1 0
1;
#X obj 637 309 route 1 1;
#X obj 741 254 list;
#X connect 1 0 2 0;
#X connect 2 0 12 0;
#X connect 2 0 14 0;
#X connect 2 0 23 0;
#X connect 2 0 29 0;
#X connect 2 0 33 0;
#X connect 2 0 34 0;
#X connect 2 0 37 0;
#X connect 3 0 4 0;
#X connect 3 0 9 0;
#X connect 3 0 10 0;
#X connect 3 0 11 0;
#X connect 4 0 5 0;
#X connect 5 0 12 1;
#X connect 6 0 14 1;
#X connect 7 0 23 1;
#X connect 8 0 29 1;
#X connect 9 0 6 0;
#X connect 10 0 7 0;
#X connect 11 0 8 0;
#X connect 12 0 13 0;
#X connect 13 0 0 0;
#X connect 14 0 15 0;
#X connect 15 0 0 0;
#X connect 16 0 0 0;
#X connect 17 0 16 0;
#X connect 18 0 17 1;
#X connect 18 0 20 0;
#X connect 19 0 21 1;
#X connect 20 0 19 0;
#X connect 21 0 22 0;
#X connect 22 0 0 0;
#X connect 23 0 21 0;
#X connect 23 0 17 0;
#X connect 24 0 35 0;
#X connect 25 0 24 1;
#X connect 25 0 27 0;
#X connect 26 0 28 1;
#X connect 27 0 26 0;
#X connect 28 0 36 0;
#X connect 29 0 28 0;
#X connect 29 0 24 0;
#X connect 30 0 31 0;
#X connect 31 0 32 0;
#X connect 32 0 34 1;
#X connect 34 0 42 0;
#X connect 34 0 43 0;
#X connect 35 0 0 0;
#X connect 36 0 0 0;
#X connect 37 0 41 0;
#X connect 37 0 43 0;
#X connect 38 0 40 0;
#X connect 39 0 40 0;
#X connect 43 0 38 0;
#X connect 43 1 39 0;
#X restore 120 227 pd direction;
#X floatatom 120 311 5 0 0 0 - - -;
#X obj 227 177 hradio 15 1 0 4 empty empty empty 0 -8 0 10 -262144
-1 -1 0;
#X text 71 17 1 START;
#X text 226 115 3 Sequence Direction 0 = Left to Right 1 = Right to
Left 2 = L to R to L 3 = R to L to R;
#X text 199 58 2 BPM;
#X text 362 230 4 Number of Steps;
#X text 211 385 5 Midi Notes;
#X connect 0 0 9 0;
#X connect 1 0 6 0;
#X connect 2 0 1 0;
#X connect 3 0 5 0;
#X connect 3 0 16 0;
#X connect 4 0 3 1;
#X connect 4 0 15 2;
#X connect 5 0 11 0;
#X connect 6 0 3 0;
#X connect 8 0 7 0;
#X connect 8 1 7 1;
#X connect 9 0 1 1;
#X connect 9 1 10 0;
#X connect 11 0 8 0;
#X connect 11 0 8 1;
#X connect 12 0 13 0;
#X connect 13 0 4 0;
#X connect 14 0 11 1;
#X connect 15 0 6 1;
#X connect 16 0 15 0;
#X connect 17 0 15 1;
